<?xml version="1.0" encoding="UTF-8" standalone="no"?>
<svg
   xmlns:dc="http://purl.org/dc/elements/1.1/"
   xmlns:cc="http://creativecommons.org/ns#"
   xmlns:rdf="http://www.w3.org/1999/02/22-rdf-syntax-ns#"
   xmlns:svg="http://www.w3.org/2000/svg"
   xmlns="http://www.w3.org/2000/svg"
   xmlns:xlink="http://www.w3.org/1999/xlink"
   xml:space="preserve"
   enable-background="new 0 0 1200 630"
   viewBox="0 0 1200 630"
   height="630px"
   width="1200px"
   y="0px"
   x="0px"
   id="Layer_1"
   version="1.1"><metadata
   id="metadata1422"><rdf:RDF><cc:Work
       rdf:about=""><dc:format>image/svg+xml</dc:format><dc:type
         rdf:resource="http://purl.org/dc/dcmitype/StillImage" /><dc:title></dc:title></cc:Work></rdf:RDF></metadata><defs
   id="defs1420"><linearGradient
     id="linearGradient1975"><stop
       id="stop1971"
       offset="0"
       style="stop-color:#045690;stop-opacity:1" /><stop
       id="stop1973"
       offset="1"
       style="stop-color:#cc1e27;stop-opacity:1" /></linearGradient><linearGradient
     gradientUnits="userSpaceOnUse"
     y2="629.48938"
     x2="598.14752"
     y1="2.1587753"
     x1="598.32111"
     id="linearGradient1977"
     xlink:href="#linearGradient1975" /><clipPath
     id="clipPath1995"
     clipPathUnits="userSpaceOnUse"><use
       height="100%"
       width="100%"
       id="use1997"
       xlink:href="#g1991"
       y="0"
       x="0" /></clipPath></defs>
<rect
   y="0.43949845"
   x="-9.5922375e-14"
   height="629.56049"
   width="1200.0948"
   id="rect1967"
   style="opacity:1;fill:url(#linearGradient1977);fill-opacity:1;stroke-width:0.99624652" /><g
   id="g1415">
	
	
	
	
	
	
	
	
	
	<g
   transform="translate(4.9975586e-4,57.819)"
   clip-path="url(#clipPath1995)"
   id="g1993"><g
     id="g1991"><g
       id="g1397"
       style="fill:#ffffff;fill-opacity:1">
		<path
   d="m 740.717,348.295 c -1.446,-2.641 -2.73,-6.531 -3.847,-11.662 -7.46,9.379 -17.883,14.072 -31.269,14.072 -12.27,0 -22.692,-3.713 -31.268,-11.128 -8.585,-7.415 -12.877,-16.741 -12.877,-27.967 0,-14.108 5.211,-24.771 15.643,-31.982 10.414,-7.219 25.575,-10.825 45.457,-10.825 h 12.502 v -6.889 c 0,-12.007 -5.166,-18.008 -15.51,-18.008 -9.619,0 -14.429,4.752 -14.429,14.26 h -40.531 c 0,-12.573 5.354,-22.782 16.054,-30.63 10.709,-7.848 24.353,-11.774 40.95,-11.774 16.599,0 29.707,4.051 39.327,12.149 9.619,8.098 14.554,19.204 14.795,33.316 v 57.602 c 0.16,11.948 1.998,21.086 5.533,27.422 v 2.043 h -40.53 z m -25.379,-26.458 c 5.051,0 9.244,-1.079 12.573,-3.248 3.319,-2.159 5.711,-4.604 7.147,-7.335 v -20.81 h -11.779 c -14.117,0 -21.166,6.335 -21.166,19.007 0,3.686 1.24,6.675 3.729,8.959 2.482,2.285 5.65,3.427 9.496,3.427 z"
   id="path1395"
   style="fill:#ffffff;fill-opacity:1" />
	</g><path
       d="M 289.186,348.295 H 247.263 L 185.27,239.454 V 348.295 H 143.111 V 173.379 h 42.159 l 61.872,108.837 V 173.379 h 42.053 z"
       id="path1399"
       style="fill:#ffffff;fill-opacity:1" /><path
       d="m 376.883,350.695 c -19.949,0 -36.079,-5.942 -48.411,-17.828 -12.337,-11.896 -18.494,-27.378 -18.494,-46.439 v -3.355 c 0,-13.278 2.463,-25.013 7.389,-35.204 4.926,-10.168 12.118,-18.043 21.568,-23.603 9.445,-5.564 20.658,-8.353 33.633,-8.353 18.267,0 32.679,5.675 43.253,17 10.57,11.329 15.853,27.128 15.853,47.394 v 15.759 h -80.496 c 1.445,7.282 4.604,13.011 9.495,17.178 4.891,4.167 11.212,6.255 18.98,6.255 12.81,0 22.822,-4.479 30.033,-13.457 l 18.494,21.881 c -5.042,6.96 -12.19,12.493 -21.435,16.625 -9.267,4.087 -19.208,6.147 -29.862,6.147 z m -4.569,-103.544 c -11.851,0 -18.896,7.848 -21.145,23.545 h 40.843 v -3.124 c 0.165,-6.487 -1.477,-11.516 -4.921,-15.076 -3.435,-3.565 -8.361,-5.345 -14.777,-5.345 z"
       id="path1401"
       style="fill:#ffffff;fill-opacity:1" /><path
       d="m 495.089,185.997 v 32.313 h 21.381 v 28.109 h -21.381 v 59.463 c 0,4.89 0.879,8.299 2.641,10.208 1.763,1.928 5.243,2.865 10.454,2.865 4.002,0 7.362,-0.241 10.088,-0.723 v 28.947 c -7.295,2.32 -14.898,3.48 -22.827,3.48 -13.934,0 -24.223,-3.266 -30.876,-9.834 -6.644,-6.576 -9.972,-16.553 -9.972,-29.903 V 246.41 h -16.575 v -28.1 h 16.575 v -32.313 z"
       id="path1403"
       style="fill:#ffffff;fill-opacity:1" /><path
       d="m 584.584,299.885 -11.414,11.414 v 36.997 H 532.68 V 163.657 h 40.491 v 98.03 l 4.087,-5.412 30.506,-37.957 h 48.535 l -45.52,53.457 48.545,76.529 h -46.367 z"
       id="path1405"
       style="fill:#ffffff;fill-opacity:1" /><path
       d="M 840.223,348.295 H 799.62 V 163.777 h 40.603 z"
       id="path1407"
       style="fill:#ffffff;fill-opacity:1" /><path
       d="M 907.846,348.295 H 867.252 V 163.777 h 40.594 z"
       id="path1409"
       style="fill:#ffffff;fill-opacity:1" /><path
       d="m 1010.021,263.727 c 1.535,5.068 2.588,10.904 2.588,18.374 v 4.087 c -0.32,22.184 -7.691,33.276 -22.112,33.276 -7.37,0 -12.921,-2.802 -16.687,-8.406 -3.766,-5.604 -5.648,-14.402 -5.648,-26.423 l 0.115,-7.326 c 1.125,-20.127 8.459,-30.157 21.988,-30.157 0.053,0 0.08,0.027 0.125,0.027 v -31.255 c -0.045,0 -0.09,-0.009 -0.125,-0.009 -12.743,0 -23.826,2.726 -33.285,8.192 -9.441,5.443 -16.688,13.229 -21.738,23.362 -5.068,10.137 -7.567,21.684 -7.567,34.659 l 0.125,6.844 c 0.893,18.981 6.925,34.026 18.133,45.126 11.218,11.084 26.075,16.607 44.564,16.607 19.222,0 34.454,-5.916 45.707,-17.82 11.235,-11.904 16.892,-27.985 16.892,-48.224 v -1.445 c 0,-7.05 -0.9,-13.413 -2.186,-19.454 h -40.889 z"
       id="path1411"
       style="fill:#ffffff;fill-opacity:1" /><rect
       x="1007.987"
       y="215.485"
       width="48.901001"
       height="32.214001"
       id="rect1413"
       style="fill:#ffffff;fill-opacity:1" /></g></g>
</g>
</svg>